<?xml version="1.0" encoding="UTF-8"?>
<svg id="Shopping-Cart-Fill--Streamline-Remix-Fill" xmlns="http://www.w3.org/2000/svg" version="1.1" viewBox="0 0 512 512">
  <!-- Generator: Adobe Illustrator 29.3.1, SVG Export Plug-In . SVG Version: 2.1.0 Build 151)  -->
  <defs>
    <style>
      .st0 {
        fill: #e56b6f;
      }

      .st1 {
        fill: #f5d1be;
      }
    </style>
  </defs>
  <rect class="st0" width="512" height="512"/>
  <path class="st1" d="M168.9,208.3h191.3l6.9-27.5h-170.7v-27.5h188.3c7.6,0,13.7,6.1,13.7,13.7s-.1,2.2-.4,3.3l-34.3,137.3c-1.5,6.1-7,10.4-13.3,10.4h-195.2c-7.6,0-13.7-6.1-13.7-13.7v-164.7h-27.5v-27.5h41.2c7.6,0,13.7,6.1,13.7,13.7,0,0,0,82.4,0,82.4ZM168.9,400.5c-15.2,0-27.5-12.3-27.5-27.5s12.3-27.5,27.5-27.5,27.5,12.3,27.5,27.5-12.3,27.5-27.5,27.5ZM333.7,400.5c-15.2,0-27.5-12.3-27.5-27.5s12.3-27.5,27.5-27.5,27.5,12.3,27.5,27.5-12.3,27.5-27.5,27.5Z"/>
</svg>