<svg viewBox="0 0 16 16" fill="#000000" xmlns="http://www.w3.org/2000/svg" id="Shopping-Cart-Fill--Streamline-Remix-Fill" height="16" width="16"><desc>Shopping Cart Fill Streamline Icon: https://streamlinehq.com</desc><path d="M4.003253333333333 6H13.295533333333333l0.3333333333333333 -1.3333333333333333H5.336586666666666V3.333333333333333H14.482733333333332c0.36819999999999997 0 0.6666666666666666 0.29847999999999997 0.6666666666666666 0.6666666666666666 0 0.05450666666666666 -0.006666666666666666 0.10881333333333333 -0.01993333333333333 0.16169333333333333l-1.6666666666666665 6.666639999999999c-0.07413333333333333 0.29679999999999995 -0.3408 0.5049999999999999 -0.6467333333333333 0.5049999999999999H3.3365866666666664c-0.36818666666666666 0 -0.6666666666666666 -0.29846666666666666 -0.6666666666666666 -0.6666666666666666V2.6666666666666665h-1.3333333333333333V1.3333333333333333h2c0.36819333333333326 0 0.6666666666666666 0.29847999999999997 0.6666666666666666 0.6666666666666666v4Zm0 9.333333333333332c-0.73638 0 -1.3333333333333333 -0.5969333333333333 -1.3333333333333333 -1.3333333333333333s0.5969533333333332 -1.3333333333333333 1.3333333333333333 -1.3333333333333333 1.3333333333333333 0.5969333333333333 1.3333333333333333 1.3333333333333333 -0.5969533333333332 1.3333333333333333 -1.3333333333333333 1.3333333333333333Zm8.000013333333332 0c-0.7363999999999999 0 -1.3333333333333333 -0.5969333333333333 -1.3333333333333333 -1.3333333333333333s0.5969333333333333 -1.3333333333333333 1.3333333333333333 -1.3333333333333333 1.3333333333333333 0.5969333333333333 1.3333333333333333 1.3333333333333333 -0.5969333333333333 1.3333333333333333 -1.3333333333333333 1.3333333333333333Z" stroke-width="0.6667"></path></svg>